<svg xmlns="http://www.w3.org/2000/svg" viewBox="0 0 727 650">
    <defs>
        <style>.cls-1{fill:#7d3ccc;}.cls-2{fill:#2ff7fb;}.cls-3{fill:#004a6b;}</style>
    </defs>
    <title>CodeBars</title>
    <g id="Layer_2" data-name="Layer 2">
        <g id="Layer_2-2" data-name="Layer 2">
            <path class="cls-1" d="M347,75H265v0A25,25,0,0,0,265,125v0h82a25,25,0,0,0,0-50Z"/>
            <path class="cls-2" d="M243,600H161v0A25,25,0,0,0,161,650v0h82a25,25,0,0,0,0-50Z"/>
            <path class="cls-3" d="M241,450H159v0A25,25,0,0,0,159,500v0h82a25,25,0,0,0,0-50Z"/>
            <path class="cls-2" d="M110,375H28v0A25,25,0,0,0,28,425v0h82a25,25,0,0,0,0-50Z"/>
            <path class="cls-1" d="M188,525H24v0A25,25,0,0,0,24,575v0H188a25,25,0,0,0,0-50Z"/>
            <path class="cls-1" d="M337,375H173v0A25,25,0,0,0,173,425v0H337a25,25,0,0,0,0-50Z"/>
            <path class="cls-3" d="M188,75H24v0A25,25,0,0,0,24,125v0H188a25,25,0,0,0,0-50Z"/>
            <path class="cls-3" d="M483,600H319v0A25,25,0,0,0,319,650v0H483a25,25,0,0,0,0-50Z"/>
            <path class="cls-2" d="M702,75H408v0A25,25,0,0,0,408,125v0H702a25,25,0,0,0,0-50Z"/>
            <path class="cls-2" d="M559,525H265v0A25,25,0,0,0,265,575v0H559a25,25,0,0,0,0-50Z"/>
            <path class="cls-1" d="M323,150H29v0A25,25,0,0,0,29,200v0H323a25,25,0,0,0,0-50Z"/>
            <path class="cls-3" d="M478,150H396v0A25,25,0,0,0,396,200v0h82a25,25,0,0,0,0-50Z"/>
            <path class="cls-3" d="M505,325a25,25,0,0,0-24-25v0H29v0A25,25,0,0,0,29,350v0H481v0A25,25,0,0,0,505,325Z"/>
            <path class="cls-2" d="M642,250a25,25,0,0,0-24-25v0H166v0A25,25,0,0,0,166,275v0H618v0A25,25,0,0,0,642,250Z"/>
            <path class="cls-1" d="M500,25A25,25,0,0,0,476,0V0H24V0A25,25,0,0,0,24,50v0H476v0A25,25,0,0,0,500,25Z"/>
        </g>
    </g>
</svg>